<svg id="Layer_1" data-name="Layer 1" xmlns="http://www.w3.org/2000/svg" viewBox="0 0 500 500"><title>3pl</title><path d="M244.43,250H132.88v2.61q0,20.17,0,40.35a12.53,12.53,0,0,1-.3,3.36,5.49,5.49,0,0,1-5.16,3.74,5.43,5.43,0,0,1-5.31-3.85,12.55,12.55,0,0,1-.36-3.36q0-23.33,0-46.67c0-5.54,1.9-7.43,7.44-7.43H244.28v-39H229.16c-5.09,0-7-1.89-7-7q0-19.94,0-39.87v-3.14c-1-.08-1.87-.19-2.72-.19-6.16,0-12.32-.06-18.48,0-2.71,0-5-.56-6.19-3.27s-.16-4.83,1.63-6.82q24.15-26.84,48.29-53.66c3.64-4,7-4,10.62,0q24.15,26.82,48.28,53.67c1.79,2,2.87,4.1,1.63,6.82s-3.5,3.29-6.21,3.26c-6.07-.07-12.15,0-18.23,0h-2.95v3.11q0,20.06,0,40.11c0,5.13-1.91,7-7,7h-15v39H370.84c5.52,0,7.43,1.91,7.43,7.46v46.67a17.89,17.89,0,0,1,0,1.94,5.63,5.63,0,0,1-5.91,5.23,5.47,5.47,0,0,1-5.17-5.66c0-12.64,0-25.28,0-37.92v-6.4H255.56V253c0,13.37.06,26.74-.08,40.11a10.11,10.11,0,0,1-1.68,5.32c-1.2,1.78-3.38,2.17-5.48,1.43a5.2,5.2,0,0,1-3.78-4.59,28.39,28.39,0,0,1-.1-2.92q0-19.56,0-39.13ZM212.3,138.53c2.74,0,4.74,0,6.75,0,14.61-.24,14.4-.38,14.27,14.15-.09,10.93,0,21.87,0,32.8v3h33.39v-3.05q0-20.05,0-40.09c0-4.81,2-6.74,6.8-6.76,4.5,0,9,0,14.19,0l-37.7-42Z"/><path d="M249.93,417.19c-12.23,0-24.47,0-36.7,0a13.46,13.46,0,0,1-4.3-.58c-2.67-.92-3.49-3.19-3.5-5.8,0-4.05,0-8.1,0-12.15,0-17.18-.07-34.36.07-51.53a17.3,17.3,0,0,1,1.63-6.95c3.88-8.28,8.08-16.41,12-24.66,1.39-2.89,3.37-4.3,6.63-4.28q23.7.09,47.39,0a6.77,6.77,0,0,1,6.74,4.12c4.21,8.3,8.74,16.44,12.89,24.76a16.87,16.87,0,0,1,1.79,7.15c.14,20.66.08,41.32.08,62,0,6-1.91,7.95-8,8Q268.28,417.22,249.93,417.19Zm-33.24-11.34c.87,0,1.57.13,2.28.13,20.65,0,41.3,0,62,.06,2.26,0,2.63-.76,2.62-2.79q-.1-25,0-50c0-2.31-.58-3-3-3q-30.61.13-61.22,0c-2.27,0-2.85.66-2.84,2.88.09,16.76.05,33.53.06,50.29C216.59,404.14,216.65,404.92,216.69,405.85ZM244.18,339V322.43c-3.88,0-7.6.26-11.27-.07s-5.55.78-6.87,4.21c-1.61,4.17-3.86,8.1-6,12.41Zm35.56.14c-2.88-5.55-5.49-10.63-8.2-15.66a2.33,2.33,0,0,0-1.71-1q-6.42-.14-12.84,0a2,2,0,0,0-1.42,1.35q-.16,6.9,0,13.81a2,2,0,0,0,1.39,1.39C264.38,339.14,271.79,339.12,279.74,339.12Z"/><path d="M372.52,417.19q-18,0-36,0a24.89,24.89,0,0,1-3.86-.29,5.09,5.09,0,0,1-4.5-4.72,37.25,37.25,0,0,1-.19-4.85c0-20.09,0-40.18.06-60.27a15.38,15.38,0,0,1,1.39-6.3c4-8.41,8.24-16.68,12.26-25.08,1.47-3.07,3.58-4.48,7-4.46q23.46.12,46.91,0a7.08,7.08,0,0,1,7.07,4.38c4.26,8.45,8.83,16.75,13.13,25.18a12.26,12.26,0,0,1,1.34,5.33q.13,32.07.05,64.16c0,4.94-2.11,6.91-7.28,6.92C397.47,417.22,385,417.19,372.52,417.19Zm.05-11.2c10.36,0,20.73-.05,31.1,0,1.87,0,2.53-.42,2.52-2.41q-.1-25.38,0-50.78c0-2-.55-2.66-2.61-2.65q-31,.1-62,0c-1.89,0-2.54.56-2.54,2.49q.09,25.5,0,51c0,1.83.6,2.33,2.39,2.31C351.83,406,362.2,406,372.57,406Zm-5.44-67c0-5.21,0-10.13,0-15.05,0-1.41-.78-1.52-1.87-1.52-4.29,0-8.58,0-12.86.05-.64,0-1.63.26-1.86.71-2.64,5.15-5.16,10.36-7.84,15.81Zm35.22,0c-2.81-5.39-5.41-10.41-8.07-15.39-.26-.49-.88-1.1-1.35-1.11-4.82-.08-9.64-.05-14.52-.05V339Z"/><path d="M127.32,417.19h-36a25.54,25.54,0,0,1-3.16-.11c-3.49-.43-5.42-2.49-5.43-6q0-32.94,0-65.87a9.33,9.33,0,0,1,1-3.93c4.19-8.67,8.5-17.28,12.7-25.94a6.58,6.58,0,0,1,6.5-4.12q23.82.09,47.64,0a6.63,6.63,0,0,1,6.52,4.05c4.3,8.44,8.85,16.75,13.13,25.19a13.34,13.34,0,0,1,1.48,5.75c.1,21.31.07,42.62.05,63.92,0,5-2,7-7.13,7C152.27,417.22,139.79,417.19,127.32,417.19Zm33.26-11.34c.07-.71.16-1.19.16-1.67,0-17.24,0-34.49,0-51.73,0-1.95-.81-2.25-2.47-2.24q-31.09.06-62.18,0c-.69,0-1.39.12-2.09.19v55.42ZM97.33,339.12c8.07,0,15.59,0,23.1-.08.47,0,1.3-1.1,1.31-1.7.11-4.37,0-8.75.08-13.12,0-1.37-.53-1.83-1.88-1.81-4.3.06-8.59,0-12.88.07a2.54,2.54,0,0,0-2,.95C102.53,328.45,100.08,333.53,97.33,339.12Zm35.77-16.68v16.45H157c-2.82-5.4-5.44-10.48-8.14-15.53a2.06,2.06,0,0,0-1.53-.88C142.62,322.41,137.94,322.44,133.1,322.44Z"/><path d="M249.79,372.56c-1.86,0-3.73.06-5.59,0a5.52,5.52,0,0,1-5.35-5c-.27-2.85,1.64-5.71,4.57-5.92a96.92,96.92,0,0,1,13.09,0,5.26,5.26,0,0,1,4.64,5.85,5.51,5.51,0,0,1-5.53,5.07C253.68,372.62,251.74,372.57,249.79,372.56Z"/><path d="M372.61,372.56c-1.95,0-3.89.07-5.83,0a5.49,5.49,0,0,1-5.28-5.06c-.24-2.73,1.61-5.59,4.42-5.79a98.68,98.68,0,0,1,13.32-.05c2.94.2,4.73,2.94,4.5,5.93a5.34,5.34,0,0,1-5.3,5C376.5,372.62,374.55,372.56,372.61,372.56Z"/><path d="M127.32,372.56c-1.94,0-3.89.07-5.83,0a5.32,5.32,0,0,1-5.24-5c-.2-3,1.62-5.68,4.57-5.88a100.31,100.31,0,0,1,13.09,0c2.82.18,4.75,2.93,4.6,5.66a5.52,5.52,0,0,1-5.36,5.24C131.21,372.62,129.27,372.56,127.32,372.56Z"/></svg>