<svg xmlns="http://www.w3.org/2000/svg" viewBox="0 0 500 500"><title>About-VisionSVG</title><path d="M285.68,360.68c7-.67,12-4,16.57-8.23l106.45-99,5.91-5.49h-5q-34,0-68,0c-6.32,0-9.68-2.52-10.3-7.52a7.8,7.8,0,0,1,6-8.86,22.27,22.27,0,0,1,5.22-.56q45,0,90,0c8.73,0,11.54,2.76,11.54,11.32q0,45.41,0,90.8c0,6.29-1.55,9-5.84,10.32a8,8,0,0,1-10.68-6.81,39.12,39.12,0,0,1-.15-4.47V259.31c-3,2.75-5.42,4.85-7.75,7Q366.79,315.69,314,365.07c-21.13,19.76-52.41,17.41-69.5-6-11.31-15.47-29.9-17.36-44.57-6.66-43,31.33-86.22,62.26-129.36,93.34-5.47,3.94-11.06,3.17-13.54-1.8-2.09-4.15-1-8.09,3-11q43.14-31.32,86.3-62.61c16.6-12,32.91-24.45,50-35.63,19.44-12.69,45.7-7.11,59.54,11.55,3.39,4.57,6.79,9.09,12.54,11.77V191.66H263.5q-90,0-180,0c-2.49,0-5.34-.2-7.41-1.38-4.9-2.79-5.15-9.11-.71-13.52,9.16-9.08,18.65-17.82,27.63-27.07,9.36-9.63,18.27-19.7,27.45-29.66-1.49-1.5-4.29-4.42-7.2-7.23q-22.86-22-45.75-44A28.42,28.42,0,0,1,74,64.83a8.11,8.11,0,0,1,5.56-13,31.73,31.73,0,0,1,4.88-.15H273.32c9.7,0,12.36,2.62,12.36,12.23V360.68Zm-17.27-186V68.75H102.87L102,69.93a24.63,24.63,0,0,1,3.62,2.48q21.56,20.76,43,41.6c5.76,5.58,5.78,9.59.09,15.12l-43.23,42c-1,1-1.94,2.06-3.31,3.53Z"/></svg>