<svg xmlns="http://www.w3.org/2000/svg" viewBox="0 0 500 500"><title>About-ImprovementSVG</title><path d="M313,191.38c-6.43,0-12.45,0-18.47,0-3.25,0-6.23-1.15-7.15-4.2a8.4,8.4,0,0,1,1.2-6.53c14-18.82,28.26-37.5,42.52-56.14,3.84-5,8.07-5,11.94.1q21.17,27.69,42.23,55.47c1.76,2.3,2.84,4.68,1.4,7.54s-4.14,3.72-7.13,3.75c-5.22,0-10.45.09-15.66,0-2.17-.05-3,.73-2.92,2.87.08,5,0,10,0,14.95V332.33c0,7-2.29,9.28-9.43,9.3q-14.6,0-29.19,0c-7.05,0-9.35-2.34-9.35-9.44q0-68.7,0-137.4Zm24-53.74-31.25,40.65c2.16.14,3.29.25,4.41.28,3.2.07,6.41.05,9.6.18,3.57.16,5.3,2.32,5.67,5.68a44.4,44.4,0,0,1,.11,4.62q0,45.19,0,90.38c0,15.19.06,30.37-.05,45.55,0,2.92.84,4,3.86,3.9,4.73-.21,9.48-.06,14.23-.06s4.77,0,4.77-4.91V190.11c0-10.83.7-11.54,11.48-11.54h7.49l.33-1.11Z"/><path d="M224.71,239.43c-6.26,0-11.83-.09-17.4,0-3.65.09-6.65-1-8.35-4.29-1.57-3,.26-5.46,2-7.77q20.86-27.48,41.75-54.95c3.85-5,8.29-4.94,12.21.21q21,27.59,41.95,55.25c1.69,2.22,3.12,4.53,1.6,7.49s-4.21,4-7.35,4c-5,0-10,.23-14.95-.06-3.34-.19-3.58,1.41-3.58,4q.09,42.36,0,84.7V332c0,7.88-1.51,9.44-9.27,9.46-10,0-19.93,0-29.89,0-6.41,0-8.76-2.44-8.76-8.89q0-44.49,0-89Zm54.23-12.79.57-1-30.79-39.8-31.5,40.82h11.45c6.94,0,8.61,1.65,8.61,8.55v85.74c0,7.75,0,7.75,7.66,7.75h15V237c0-1.19,0-2.38.06-3.56.38-4.83,2.46-6.78,7.26-6.82C271.17,226.62,275.06,226.64,278.94,226.64Z"/><path d="M184.51,281.55v4.22q0,23.48,0,47c0,7-1.85,8.77-8.93,8.78q-15.47,0-30.94,0c-6.24,0-8-1.75-8-8.07,0-16-.09-32,.07-48,0-3.21-1-4.07-4-3.91-4.85.26-9.72,0-14.58.08-3.23,0-5.86-1.08-7.36-4s-.1-5.24,1.63-7.5q21-27.55,42.07-55.12c3.93-5.13,8.28-5.07,12.2.07q21,27.56,42.06,55.14c1.76,2.31,2.88,4.69,1.51,7.53-1.46,3-4,4-7.32,3.93C196.87,281.47,190.85,281.55,184.51,281.55Zm-24-53.64L129,269c5.13,0,9.35-.13,13.55,0,4.5.18,6.43,2.23,6.49,6.72.07,6.29,0,12.58,0,18.86,0,10.33-.05,20.65.08,31,0,1.09,1,3.1,1.61,3.12,6.94.22,13.89.14,21,.14v-4.4q0-23.67,0-47.33c0-6.18,1.89-8.07,8.09-8.14,3.74,0,7.48,0,12.12,0C181.2,254.9,171,241.61,160.49,227.91Z"/><path d="M265.54,80c3.57,3.7,6.43,6.65,9.27,9.61a52.35,52.35,0,0,1,3.86,4.17,6,6,0,0,1-.6,8.35c-2.43,2.25-5.95,2.21-8.62-.4C262.66,95.05,256,88.3,249.27,81.6c-1.26-1.26-2.58-2.47-3.74-3.81-3.31-3.78-2.75-8.3,1.65-10.77q16.59-9.3,33.4-18.22c4-2.12,7.51-1.06,9.18,2.25,1.79,3.56.55,6.86-3.56,9.06a115.92,115.92,0,0,0-13,7.59c1.78.38,3.56.88,5.36,1.13,21.53,2.88,41.59,10.08,60.6,20.42A187.65,187.65,0,0,1,398.48,140a185.58,185.58,0,0,1,36.1,81.43c.36,2,.89,3.93,1.2,5.92.67,4.33-1.32,7.57-4.9,8.16-3.25.53-6.2-2-7.07-6-1.15-5.33-2.12-10.7-3.47-16-12.77-49.72-41.79-87-86.32-112.3C313.54,89.5,291.41,82.94,268.13,80,267.67,79.9,267.19,80,265.54,80Z"/><path d="M232.44,430.1c-3.86-3.76-7.74-7.5-11.57-11.28a29.55,29.55,0,0,1-3.55-4c-1.85-2.67-1.73-5.48.58-7.76s5-2.71,7.75-.78a14.58,14.58,0,0,1,2.2,1.79q12.83,12.84,25.6,25.73c4.26,4.32,3.58,8.75-1.72,11.48-11.28,5.79-22.53,11.63-33.94,17.15-2,1-5.09,1.29-7,.41-4.76-2.23-4.35-7.9.49-10.67,2.27-1.29,4.62-2.41,6.92-3.64s4.56-2.49,7.87-4.3c-4.72-.95-8.44-1.76-12.17-2.46-34.89-6.53-65-22.69-90.9-46.48C93.33,368.08,74.45,334.43,65.87,295a102.62,102.62,0,0,1-1.67-10.17c-.42-3.58,1.44-6.27,4.52-7,2.83-.69,6,1.17,7,4.64a83.16,83.16,0,0,1,1.74,8.33c8.31,41.06,28.79,74.84,60.88,101.66,24.92,20.82,53.73,33,85.62,38.13,2.6.42,5.28.36,7.92.53Z"/><path d="M424.62,272.34c-3.86,3.82-7.75,7.61-11.55,11.48-2.4,2.45-5.22,3.47-8.35,2a5.89,5.89,0,0,1-1.75-9.41c8.32-8.78,16.9-17.32,25.52-25.81,2.15-2.12,6.57-1.54,8.6,1.25q10.14,14,19.83,28.22a5.09,5.09,0,0,1-1.11,7.33,6.51,6.51,0,0,1-8.72-.7c-2.36-2.65-4.36-5.62-6.53-8.43-.78-1-1.6-2-2.94-3.71-.45,1.89-.86,3.14-1,4.42q-10.36,76.5-70.32,125.11c-22.11,18-47.34,29.51-74.82,36.4-4.93,1.24-10,1.94-15,2.77-3.92.65-7.21-1.48-7.87-4.88s1.84-6.63,5.91-7.52c8.55-1.87,17.31-3.15,25.59-5.86,58.67-19.23,98.07-58.19,117.58-116.77,3.83-11.5,5.62-23.67,8.35-35.53Z"/><path d="M74.26,239.76c4.8-4.84,8.78-9.25,13.23-13.15,1.76-1.55,4.66-3,6.82-2.67,5,.65,6.44,6.51,2.87,10.48-2.37,2.64-5,5.08-7.51,7.59Q81,250.67,72.23,259.3c-3.93,3.86-7.54,3.67-10.61-.91-6.29-9.34-12.44-18.78-18.54-28.24a6.49,6.49,0,0,1,1.8-8.57,5.86,5.86,0,0,1,8.15,1.7c2.85,3.85,5.46,7.88,8.77,12.69.85-5.41,1.46-9.79,2.23-14.15a188,188,0,0,1,116.12-142,184.92,184.92,0,0,1,36.14-10.3c4.78-.85,7.51.43,8.25,4.19.86,4.43-1.39,7.21-6.15,8.23-6.94,1.5-14,2.76-20.71,5Q107.22,116.64,79.83,208c-2.76,9.25-3.77,19-5.55,28.56A23.21,23.21,0,0,0,74.26,239.76Z"/><path d="M249.76,349.63h125c3.33,0,6.49.23,7.8,4.09s-.47,7.18-4.4,8.17a12.88,12.88,0,0,1-3.15.39q-125.33,0-250.64,0c-6,0-9.46-3.92-7.28-8.63.79-1.71,3.1-2.89,5-3.85,1-.54,2.56-.17,3.87-.17Z"/></svg>