<svg xmlns="http://www.w3.org/2000/svg" viewBox="0 0 500 500"><title>About-TechSVG</title><path d="M263.25,408.13V328.08H236.79v44.56c5.46,1.82,9.73,5.2,11.9,10.81A17.71,17.71,0,0,1,216,397.13a17.45,17.45,0,0,1,8.84-23.29c2.34-1,2.88-2.22,2.86-4.54-.1-12.49,0-25,0-37.47V328.1h-31v66.78c0,7.82-.54,8.34-8.47,8.34-20,0-40.06,0-60.08,0-2.14,0-3.16.56-4,2.63A17.65,17.65,0,0,1,90.27,397a17.94,17.94,0,0,1,17-15.68c7.07-.32,14,4.37,17,11.22a4.07,4.07,0,0,0,2.76,2.23c19.81.12,39.62.09,59.43.07a10.93,10.93,0,0,0,1.38-.19v-66c-4.61-.69-9.11-1.1-13.49-2.06a58.43,58.43,0,0,1-21.48-10,8.15,8.15,0,0,0-4.35-1.55c-13.57-.11-27.14,0-40.7-.11-2,0-3,.67-3.79,2.54a17.49,17.49,0,0,1-19.42,10.46c-8.73-1.84-14.63-9-14.52-17.64s6-15.49,14.93-17.32c7.53-1.55,15.85,3,19,10.61.85,2.07,1.92,2.63,4,2.61,10.87-.11,21.73,0,33.28,0-1.63-2.39-3.32-4.22-4.28-6.37-2.62-5.86-5-11.81-7.31-17.81-.66-1.76-1.29-2.57-3.31-2.57q-27.3.12-54.59,0c-1.81,0-2.59.67-3.3,2.28-3.68,8.42-11.84,12.51-20.52,10.43a17.63,17.63,0,0,1-13.5-17.76A17.82,17.82,0,0,1,50.5,257.18a17.54,17.54,0,0,1,17.91,10.57c1,2.33,2.18,2.88,4.53,2.87,17.33-.1,34.67-.05,52-.05h2.7c1.64-9.11,3.21-17.89,4.83-26.91-8.35,0-17.14-.07-25.93.11-.81,0-1.88,1.45-2.32,2.46-5.6,12.6-22.32,14.76-30.44,3.82-4.37-5.89-4.94-12.33-1.62-18.83a16.67,16.67,0,0,1,16-9.59A16.57,16.57,0,0,1,103.89,232c1,2.36,2.27,2.86,4.57,2.83,8.93-.11,17.87,0,26.81-.14a6,6,0,0,0,4.2-2.06c11-14.9,25.6-23.21,44-25.1,3.31-.34,3.31-.4,4.31-4.18H82.12c-6.1,0-7.23-1.11-7.23-7.06,0-20.35,0-40.7,0-61,0-2.09-.45-3.16-2.57-4a17.46,17.46,0,0,1-10.73-19.54c1.87-8.77,9-14.63,17.66-14.5s15.49,6,17.28,14.94c1.54,7.73-3.14,15.88-10.87,19.25-1,.44-2.3,1.79-2.31,2.73-.13,19.7-.09,39.4-.08,59.11a5,5,0,0,0,.25,1H187.65c.07-1.05.18-2,.19-2.93,0-20.35,0-40.7,0-61,0-2.15-.59-3.1-2.64-4A17.45,17.45,0,0,1,174.76,107c1.84-8.64,8.81-14.54,17.25-14.6,8.65,0,15.71,5.79,17.61,14.58,1.67,7.78-2.74,16.14-10.47,19.42-1.73.73-2.52,1.46-2.51,3.44.07,19.27,0,38.55.05,57.82,0,.7.14,1.4.27,2.63.8-.76,1.27-1.14,1.66-1.59a70.73,70.73,0,0,1,22.91-17.51,2.94,2.94,0,0,0,1.9-3.18q-.1-36.5,0-73c0-1.9-.07-3.2-2.39-4.12A17.39,17.39,0,0,1,210.27,71.6c1.82-8.85,8.8-14.77,17.42-14.77a17.7,17.7,0,0,1,6.9,34c-1.58.68-2.42,1.3-2.42,3.18q.11,35.05.05,70.1c0,.52.1,1,.14,1.47l26.35-2.93V127.39c-6.43-2.21-11-6.43-12.68-13.29a17.72,17.72,0,0,1,33.68-10.66,17.34,17.34,0,0,1-8.8,22.54c-2.7,1.21-3.26,2.64-3.22,5.3.13,11.07.05,22.14.05,33.06,5.44,1.8,11,3.22,16.16,5.47s9.78,5.25,14.91,8.07c.06-1.2.15-2.32.15-3.45q0-39.74,0-79.46c0-5.69,1.08-6.8,6.79-6.8,20.24,0,40.48-.06,60.73,0,2.67,0,4.07-.54,5.24-3.26a17.38,17.38,0,0,1,20-9.78,17.69,17.69,0,0,1-.57,34.61,17.57,17.57,0,0,1-19.75-10.4c-.67-1.57-1.15-2.68-3.3-2.67-19.38.1-38.76.06-58.14.07-.62,0-1.24.13-2.2.23v85.65c0,5.05.16,5.2,5.32,5.2q39.24,0,78.49,0c2.18,0,3.37-.45,4.31-2.69a17.21,17.21,0,0,1,19.38-10.4c8.71,1.9,14.44,8.72,14.53,17.3s-5.87,15.71-14.64,17.56c-7.76,1.64-16.07-2.79-19.37-10.57-.75-1.78-1.58-2.45-3.51-2.44q-37,.08-74,.05a9.41,9.41,0,0,0-1.46.16l10.53,26.52H330q48.47,0,96.91.06c2.51,0,3.69-.65,4.71-3.06a17.41,17.41,0,0,1,19.33-10c8.8,2,14.57,9,14.48,17.71A18,18,0,0,1,451,245.22a17.62,17.62,0,0,1-19.53-10.32c-.75-1.78-1.46-2.72-3.62-2.71q-44.74.1-89.48.05a2.56,2.56,0,0,0-1.71.57c.67.28,1.33.59,2,.83A47.58,47.58,0,0,1,366,256.46,4.11,4.11,0,0,0,370.2,259q10.82-.21,21.64,0c2.13,0,3.17-.55,4-2.62a17.5,17.5,0,0,1,21.57-10,17.74,17.74,0,0,1-7.67,34.5,16.79,16.79,0,0,1-13.92-10.66,3.43,3.43,0,0,0-3.79-2.52c-7.19.11-14.38,0-22.07,0,2.49,10.77,1.82,21-2.79,31.22h60.23c5.36,0,6.55,1.21,6.55,6.68,0,20.46,0,40.92,0,61.38,0,2.14.56,3.11,2.66,3.93A17.42,17.42,0,0,1,447.2,390.3c-1.83,8.82-8.86,14.75-17.47,14.75A17.74,17.74,0,0,1,423,370.92c1.63-.65,2.68-1.09,2.66-3.25-.1-19.16-.06-38.33-.07-57.49,0-.63-.1-1.25-.18-2.15-1.16-.07-2.2-.19-3.24-.2-19,0-37.9,0-56.85.07a5.92,5.92,0,0,0-4.13,1.62c-10.34,12.63-23.79,18.32-39.89,18.33H308c-.08,1.33-.2,2.47-.2,3.6,0,12.7,0,25.41-.06,38.11,0,2.25.63,3.31,2.81,4.24a17.36,17.36,0,0,1,10.09,19.58c-2,8.61-9,14.32-17.53,14.25s-15.6-6.15-17.33-14.92c-1.5-7.6,3-16,10.6-19.07,2.08-.85,2.64-1.83,2.62-4-.09-12.81,0-25.63-.05-38.44,0-.95-.08-1.9-.13-3.11H272.44c-.06,1.19-.17,2.34-.17,3.48,0,24.44,0,48.89-.06,73.33,0,2.39.67,3.5,2.94,4.49A17.3,17.3,0,0,1,285,429.09c-2,8.6-9,14.2-17.64,14.08-8.46-.12-15.37-6.05-17.14-14.73-1.56-7.61,2.93-15.93,10.38-19.24C261.51,408.81,262.42,408.47,263.25,408.13Zm-7.78-89.74v.09c21.85,0,43.7,0,65.55,0a64.53,64.53,0,0,0,9-.64c18.6-2.63,34-21.29,32.87-39.68-1.32-21.33-16.29-36.55-37.71-38.34-4.61-.39-5.55-1.52-6.08-6.16a98.13,98.13,0,0,0-2.12-13c-9.87-38.68-54.76-59.38-90.7-41.94-14.6,7.09-25.4,17.88-31.92,32.78-1.39,3.18-3.21,4.8-6.85,4.39a25.7,25.7,0,0,0-6.09.5c-26.71,3.54-45.69,26.5-44.45,53.74,1.19,26.06,22.92,47.66,49.39,48.21C209.39,318.77,232.43,318.39,255.47,318.39ZM96.57,310a8.83,8.83,0,0,0-8.8-8.83,8.93,8.93,0,0,0-8.91,8.73,8.86,8.86,0,1,0,17.71.1ZM312.1,390a8.75,8.75,0,0,0-8.76-8.82,8.86,8.86,0,1,0,.08,17.71A8.73,8.73,0,0,0,312.1,390Zm-35.54,35.67a8.82,8.82,0,1,0-8.81,8.79A8.84,8.84,0,0,0,276.56,425.64ZM236.51,74.57a8.69,8.69,0,0,0-8.55-9,8.87,8.87,0,1,0,8.55,9ZM201,109.9a8.81,8.81,0,0,0-17.61,0,8.81,8.81,0,1,0,17.61,0Zm71.12,0a8.8,8.8,0,1,0-8.66,8.9A8.7,8.7,0,0,0,272.09,110ZM438.77,387.8a8.8,8.8,0,1,0-17.59.15,8.8,8.8,0,0,0,17.59-.15Zm9-151.26a8.79,8.79,0,1,0-8.79-8.71A8.57,8.57,0,0,0,447.75,236.54ZM96.56,238.93a8.87,8.87,0,0,0-8.7-8.93,9,9,0,0,0-9,8.67,8.85,8.85,0,1,0,17.7.26Zm135.5,142.22a8.82,8.82,0,0,0-8.67,8.92A8.81,8.81,0,1,0,241,389.8,8.82,8.82,0,0,0,232.06,381.15ZM87.71,114.28a8.85,8.85,0,1,0-17.7.48,8.85,8.85,0,0,0,17.7-.48Zm300-13.23a8.84,8.84,0,0,0,8.88-8.74,8.86,8.86,0,1,0-8.88,8.74Zm24.32,100a8.75,8.75,0,0,0,9-8.55,8.87,8.87,0,1,0-9,8.55Zm0,71.1a8.74,8.74,0,0,0,9-8.57,8.86,8.86,0,1,0-17.71-.25A8.7,8.7,0,0,0,412.09,272.1Zm-360,11.16A8.7,8.7,0,0,0,61,274.57a8.85,8.85,0,0,0-8.94-9,9.05,9.05,0,0,0-8.77,8.92A8.85,8.85,0,0,0,52.12,283.26ZM98.84,398.72a8.89,8.89,0,0,0,8.62,9,8.82,8.82,0,1,0,.37-17.63A8.86,8.86,0,0,0,98.84,398.72Z"/></svg>