<svg xmlns="http://www.w3.org/2000/svg" viewBox="0 0 500 500"><title>About-InnovationSVG</title><path d="M198,322.37c4.81-2.64,9.83-3.3,15.11-3.26,18.27.13,36.54.06,54.81,0,6.69,0,13.45-.58,19.35,3.12,2.66-6.14,4.52-12.35,7.83-17.67,5-8.06,10.25-16.29,16.82-23.06,35.55-36.66,37.3-94,2.71-131.58-27.47-29.89-61.5-38.9-100.58-28.17-9.9,2.72-18.88,7.73-27.45,13.4-3.84,2.54-7.14,2-9.67-1.11-3-3.76-2.49-8.05,1.48-10.84a107.93,107.93,0,0,1,60.11-20.1c48.68-1.38,91.51,26.38,108,72.07,15.27,42.22,7.54,81-22.85,114.6-8.74,9.68-17.28,19.55-20.5,32.55a98.32,98.32,0,0,0-3,20.79c-.44,15.84-.2,31.69-.11,47.54,0,5.78-1.18,11.09-4.56,15.88a6.69,6.69,0,0,0-.88,3.37c-1.19,25.75-17.77,45.13-43,50.15-27.55,5.49-55.61-14.22-59.93-42.09a12,12,0,0,1-.28-2,29.45,29.45,0,0,0-3.89-14.26c-1.64-3.11-1.88-7.21-1.93-10.88-.24-17,.12-34.12-.35-51.17-.48-17.8-7.36-33.1-20.06-45.64-23.65-23.37-34.5-51.85-33.43-84.85a105,105,0,0,1,17.46-55.6c.43-.64.83-1.3,1.31-1.9,2.91-3.63,7.2-4.52,10.48-2.19s4.08,6.73,1.62,10.6c-5.33,8.4-9.91,17.16-12.57,26.76-9.76,35.34-2,66.56,22.66,93.53,10.94,12,20.51,24.67,24.68,40.7A10.37,10.37,0,0,0,198,322.37Zm9,94.4c1.37,16.72,18.63,30.49,37.1,29.8,19.63-.74,33.37-16.11,34.3-29.8Zm-7-74.48,84.83,12.16c0-4.61.33-8.9-.09-13.1-.4-4-4.18-7.07-8.31-7.08q-33.63-.07-67.26,0C204.48,334.29,201.37,337.05,200,342.29Zm.7,40.3c0,4.12-.34,8,.09,11.76.58,5.16,4.23,7.91,9.63,7.91q31.86,0,63.73,0a20.66,20.66,0,0,0,4.9-.52c3.17-.76,5.21-3.38,5.58-7ZM200,357.32v10.89l84.81,12.16V369.48Z"/><path d="M243.56,206c4.41-4.71,8.13-8.89,12.07-12.85q20.49-20.58,41.13-41a14,14,0,0,1,4-2.79c3-1.35,5.65-.43,7.75,1.87s2.13,5.22.88,8a10.2,10.2,0,0,1-2.19,2.86Q279,190.36,250.72,218.58c-5.06,5-9.41,5-14.49-.05Q183.54,165.78,130.87,113a13.15,13.15,0,0,1-3.51-5,6.51,6.51,0,0,1,2.74-7.81,7.13,7.13,0,0,1,8.6.45c3.46,3.06,6.67,6.39,9.93,9.65q46.65,46.67,93.28,93.37A20.88,20.88,0,0,1,243.56,206Z"/><path d="M393,54H380c-1.65,0-3.31,0-4.94-.14a7.36,7.36,0,0,1-6.82-7.48,7.26,7.26,0,0,1,7.09-7.26c5.39-.2,10.78-.08,16.17-.09,6.27,0,12.54,0,18.81,0,5.71,0,8.17,2.24,8.44,7.82q.74,15.82,1.25,31.65c.16,4.66-2.92,8-7.21,8.16-4.48.15-7.62-3.06-7.68-8a120.28,120.28,0,0,0-.66-14.19c-.76.87-1.48,1.79-2.29,2.61Q370.08,99.19,338,131.27c-2.25,2.26-4.64,4-8.06,3.74a7,7,0,0,1-5.53-10.89,20.46,20.46,0,0,1,2.82-3.21q31.47-31.51,63-63c1-1,2.17-1.86,3.26-2.79Z"/><path d="M235.39,66.36c0-2.19-.08-4.39,0-6.58a7.4,7.4,0,0,1,7.26-7.09,7.22,7.22,0,0,1,7.5,6.8c.21,4.49.2,9,0,13.5a7.43,7.43,0,0,1-7.46,6.93,7.19,7.19,0,0,1-7.33-7.3C235.34,70.54,235.39,68.45,235.39,66.36Z"/><path d="M353.52,332.7c-5.12-.09-16.28-10.88-16.52-15.48-.15-2.87.82-5.2,3.41-6.62s5.61-1.49,8,.53c3.6,3.05,7.06,6.27,10.38,9.61a6.65,6.65,0,0,1,1.23,7.94C358.68,331.59,356,332.55,353.52,332.7Z"/><path d="M125.62,324.63a16.12,16.12,0,0,1,2.19-4.17c2.67-3,5.61-5.85,8.55-8.64a8.19,8.19,0,0,1,11.28.12c2.68,2.84,2.45,7.09-.67,10.33-2.66,2.76-5.32,5.54-8.16,8.11a8.08,8.08,0,0,1-9.15,1.63C127,330.85,125.73,328.65,125.62,324.63Z"/><path d="M117.86,161.73a7.38,7.38,0,0,1-10.16,6.73c-3.84-1.59-7.71-3.13-11.51-4.81-4.06-1.79-5.51-5.64-3.83-9.81a7,7,0,0,1,9-3.77c4.31,1.55,8.55,3.36,12.73,5.25C116.75,156.51,117.89,158.78,117.86,161.73Z"/><path d="M393.91,274.59c0,5.85-5,9.14-10.43,6.89-3.64-1.53-7.3-3-10.92-4.56-4.12-1.79-5.8-5.69-4.28-9.69,1.39-3.67,5.42-5.44,9.56-3.92s8.14,3.24,12.16,5A6.25,6.25,0,0,1,393.91,274.59Z"/><path d="M288.88,82.77c2.37-5.37,4.46-10.91,7.25-16.06,1.45-2.7,6-3,9-1.36a6.92,6.92,0,0,1,3.38,8.16,118.64,118.64,0,0,1-5.57,13.33,7.12,7.12,0,0,1-8.07,3.71C291.68,89.6,289.46,86.47,288.88,82.77Z"/><path d="M93.48,208.1c2.2,0,4.4-.09,6.6,0a7.47,7.47,0,0,1,7.13,7.24,7.28,7.28,0,0,1-6.8,7.51c-4.6.21-9.24.22-13.83,0-4-.22-6.72-3.63-6.57-7.66a7.21,7.21,0,0,1,6.88-7.06C89.08,208,91.29,208.11,93.48,208.1Z"/><path d="M392.13,223.61c-2.31,0-4.63.16-6.91,0a7.4,7.4,0,0,1,.43-14.76c4.28-.13,8.57-.12,12.85,0a7.41,7.41,0,0,1,.21,14.8c-2.18.16-4.39,0-6.58,0Z"/><path d="M367.2,160.19a7.74,7.74,0,0,1,4.9-6.87c3.55-1.49,7.07-3,10.67-4.38,4.06-1.53,8.51.3,10,3.94s-.52,7.94-4.58,9.71c-3.72,1.62-7.49,3.15-11.26,4.67C372.28,169.12,366.89,165.15,367.2,160.19Z"/><path d="M195.42,83.3c-.64,3.66-2.95,7-5.93,7.93a6.81,6.81,0,0,1-7.88-3.42,100.2,100.2,0,0,1-5.73-14c-1-3,1.12-6.72,3.82-8s6.93-.83,8.41,1.79C190.94,72.62,193,78.05,195.42,83.3Z"/><path d="M111.36,264.2a7.53,7.53,0,0,1,6.93,5.17c.82,2.85-.56,6.85-3.42,8.26a137.12,137.12,0,0,1-13.62,5.8c-2.83,1-6.39-1-8-3.92-1.38-2.53-1.1-6.81,1.59-8.38,5.14-3,10.74-5.2,16.15-7.74Z"/></svg>