<svg xmlns="http://www.w3.org/2000/svg" viewBox="0 0 500 500"><title>About-MisionSVG</title><path d="M242.85,456c-58.86-1.39-107-21.69-145.73-62.87-29-30.89-46.55-67.78-51.1-109.87-6.72-62,11.78-116.07,55.38-161.06,24.85-25.65,55-42.54,89.3-51.83a189.73,189.73,0,0,1,39.45-6c33.32-1.82,64.86,4.68,95,18.7a196.37,196.37,0,0,1,45,29.38c4.17,3.57,3.69,3.76,8.48-.35,5.64-4.83,7.94-9.58,5.95-17.55-3.95-15.87-3.36-12.42,7.16-23.21C398.76,64.17,406,57.11,413.09,50c1-1,1.88-2,2.91-2.88,5.78-5.08,9.95-3.91,11.67,3.44,1,4.22,1.56,8.55,2.28,12.84.85,5,1,5.18,6,6.06,4.28.75,8.63,1.19,12.88,2.07,7,1.43,8.57,5.95,3.69,11-10.27,10.55-20.84,20.8-31.14,31.31-2.83,2.88-5.88,3.54-9.64,2.74-4.25-.9-8.54-1.63-12.82-2.39-2.75-.49-5.33-.54-7.45,1.93-2.64,3.09-5.52,6-8.29,8.94,2.29,3,4.51,6,6.89,8.85,23.38,28.38,38.43,60.49,43.49,97.05,8.16,58.88-7.14,111.15-45.35,156.45C356.92,424.44,316.57,446,268.82,453.7,259.45,455.21,249.87,455.41,242.85,456ZM354.29,153c62.22,69.7,50.73,167.79-10,222.36-60,53.9-151.74,53.08-211-2.69-60.12-56.54-65.42-151-10.77-214.89,50.84-59.44,150.19-78,224.25-12.75,5.55-5.51,11.18-11,16.7-16.61,3.12-3.18,3.08-3.31-.32-6.28C318,82.69,265.44,68.38,206.8,78.47c-44.24,7.62-81,29.56-109.5,64.44C62.86,185.05,49.7,233.5,57.47,287.17c5.53,38.22,21.93,71.74,49.05,99.4C153.05,434,209.75,451.8,274.85,440.4c41.55-7.27,76.6-27.8,104.07-60,41.83-49.06,54.37-105.45,39.4-167.84-6.91-28.83-21.49-53.92-40.9-76.25-2-2.33-3.5-2.81-5.86-.36C366.08,141.61,360.36,147.05,354.29,153Zm-16.18-.2c-60.45-55.14-155.53-50.18-208.93,14C79.54,226.53,85.27,317,146.48,369.44c58.71,50.36,148.91,45.62,202-14.66,52.72-59.86,43.69-145.62-2.74-193-5.53,5.53-11,11.18-16.66,16.57-2.59,2.46-2.56,4.47-.15,6.81a24.06,24.06,0,0,1,2.16,2.46c22.08,28.25,29.86,60,22.74,95.16-5.26,26-18.38,47.5-38.52,64.68-22.05,18.81-47.87,28.24-76.62,27.67-33.4-.66-62-13.37-84.39-38.6-25-28.27-34.74-61.37-27.61-98.44,7.75-40.26,31.14-68.92,68.65-85.45a108.49,108.49,0,0,1,69.41-6.53A118,118,0,0,1,314.1,170.4c3.95,3.23,4.1,3.3,7.92-.58C327.35,164.4,332.48,158.79,338.11,152.82Zm-40.74,56.65c1.91,2.57,3.25,4.29,4.5,6.07,14.08,20,17.44,42,10.8,65.32-9.82,34.43-42.19,55.13-74.94,54.28-44.6-1.14-79.13-42-73.07-86.12,7.32-53.36,69.42-85.8,118.47-51.89,1.34.93,2.5,2.31,4,2.8,1.28.42,3.41.46,4.26-.32,6.23-5.65,12.24-11.55,19.29-18.31-2.08-1.49-3.66-2.52-5.14-3.69-25.73-20.35-55-27.49-86.78-20.65-55.74,12-91.93,64.89-81,122.26,10.84,56.79,62.3,89.75,113.3,83.95,24.55-2.79,45.94-12.43,62.75-30.09,30.26-31.8,38.3-69.18,23.88-110.88a89.77,89.77,0,0,0-17.33-29.39c-2.05-2.37-3.58-2.74-5.89-.37C309,198.1,303.29,203.6,297.37,209.47Zm-7.85,9.3c-5.9,6.11-11.28,11.89-16.92,17.42-2.13,2.08-2.32,3.81-.87,6.28a33.23,33.23,0,0,1,4,24.43,36,36,0,0,1-37.36,28.81,36.88,36.88,0,0,1-33.83-32.17c-2-16.85,9.61-33.58,26.49-38.43,9.43-2.71,18.3-1.31,26.81,3.27,1.62.87,3.19,2.4,5.11.57l18.64-17.84c-23.26-21.08-63.17-21.38-87.88,4.34-24.08,25.07-23.77,65.67.35,90.18a65.07,65.07,0,0,0,90.1,2.47C309.58,285,312.08,244.37,289.52,218.77Zm-29.09,27.8c-4.27,4.25-8.48,8.46-12.71,12.66a43.7,43.7,0,0,1-4.11,3.95c-2.58,2-5.35,1.84-7.39-.09a5.15,5.15,0,0,1-.5-7.31,56.28,56.28,0,0,1,5.05-5.32c3.74-3.79,7.51-7.55,11.38-11.42-11.09-7-23.13-5-31.15,4.54a24.87,24.87,0,0,0,1.13,32.77,24.31,24.31,0,0,0,32,2.94C264,272,268.54,257.7,260.43,246.57ZM437.8,82c-6.64-3-8.47-3.44-10.85-1.17-7.38,7.07-14.53,14.38-22.67,22.49,5.07.56,8.35,4.09,12.29,0C423.44,96,430.62,89.12,437.8,82ZM418,61.81c-7.45,7.46-14.48,14.53-21.57,21.54-1.7,1.68-2.59,3.34-1.52,5.74.71,1.6,1.12,3.32,2,5.94,7.48-7.47,14.31-14.35,21.21-21.16A5.17,5.17,0,0,0,419.42,68C418.83,66.23,418.54,64.36,418,61.81Z"/></svg>