<svg xmlns="http://www.w3.org/2000/svg" viewBox="0 0 500 500"><title>About-ClientSVG</title><path d="M445.58,147.5c-13.21-14.05-27.19-27.88-40.71-41.25-5.51-5.45-11.21-11.09-16.78-16.67-34-34-87.67-34.34-122.22-.75-2.43,2.36-4.68,4.88-7.29,7.81-1.3,1.45-2.66,3-4.12,4.55l-3.63,4-3.69-3.91c-1.66-1.76-3.2-3.43-4.68-5-3-3.25-5.58-6-8.33-8.73a85.66,85.66,0,0,0-59.72-24c-19.9,0-39.65,6.81-54.9,20.58-19.07,17.22-38.68,36.73-63.57,63.24-29.48,31.38-30.07,81.42-1.35,113.91,7,7.89,14.7,15.49,22.16,22.84,4,4,8.24,8.11,12.29,12.26A14.15,14.15,0,0,1,93,303.93c2.62,19.33,15.44,33.28,34.3,37.31a8.89,8.89,0,0,1,7.45,7.25c4.34,18.36,14.75,29.18,31.82,33.07a9,9,0,0,1,6.24,6.17c4.41,17.25,15.65,27.91,35.39,33.56a10.48,10.48,0,0,1,7.71,7.27c3.9,12,12.56,20.41,24.37,23.73,12.06,3.38,25.07.76,34-6.84,10.88-9.31,24.8-21.93,35.94-37,3.55-4.79,7.58-6.4,13.48-5.38,15.27,2.63,28.65-4.49,34.9-18.59a51.48,51.48,0,0,0,2.55-8.29c.37-1.49.76-3,1.2-4.6l.92-3.18,4.9-.6c16.87-2.09,28-12.18,30.57-27.67,1.37-8.33,5.74-10.8,11.87-12,14.82-2.79,25.28-13.71,27.3-28.52,1-7-.42-13.8-4.23-20.69l-1.89-3.44,2.89-2.66c1.21-1.12,2.45-2.21,3.69-3.3a97.58,97.58,0,0,0,7.18-6.75C475.14,230.69,475.2,179,445.58,147.5ZM140.31,325.44a11.39,11.39,0,0,1-7.49,2.87l-.59,0c-11.53-.72-23-10.93-25.07-22.29a10.43,10.43,0,0,1,2.71-8.7c13.4-13.16,27.68-27,43.65-42.39a17.69,17.69,0,0,1,20.07-2.68c8.21,4.52,12.67,11.7,12.91,20.76h0a17.12,17.12,0,0,1-5.64,13.5c-7.39,7-14.84,14.2-22.05,21.16C152.76,313.5,146.51,319.54,140.31,325.44ZM179,365.1a11.49,11.49,0,0,1-7.75,3,9.71,9.71,0,0,1-1.34-.1c-12.48-1.75-20.47-11-22.5-25.95-.49-3.61,2.23-6.58,3.08-7.4L159.4,326c10.38-10.14,21.11-20.63,32-30.66,5.9-5.45,14.26-6.43,23.55-2.76,7.6,3,11.86,9.7,12.65,19.9l.12,1.53-.76,1.33c-.09.17-.18.39-.29.63a16.55,16.55,0,0,1-3.12,4.89C207.61,336.84,193.05,351.33,179,365.1Zm41.79,39.7a10.22,10.22,0,0,1-7.56,3.6,11.77,11.77,0,0,1-4.06-.77c-8.55-3.09-20.25-8.91-23.14-23.59a10.88,10.88,0,0,1,2.63-9.1c7.77-7.85,15.72-15.78,23.4-23.45,7.14-7.13,14.52-14.49,21.73-21.78a13.57,13.57,0,0,1,13.66-3.82,25.06,25.06,0,0,1,19,24.53c.49,4.09-1.13,8-4.94,11.91C247.4,376.9,233.69,391.19,220.79,404.8Zm78.42-4.12q-4.79,4.9-9.52,9.85c-7.69,8-15.64,16.23-23.78,24.08-2.7,2.6-6.2,3.77-9.29,4.79-1.2.4-2.33.77-3.31,1.2l-1.17.5-1.27-.12c-12-1.1-19.8-7.48-22.66-18.46a8.94,8.94,0,0,1,2-7.92c13-13.66,28.27-29.74,43.64-45.51,2.59-2.66,6.85-3.44,9.71-3,9,1.26,15.39,6.84,19,16.59C305.07,389.73,304,395.8,299.21,400.68Zm119.19-91c-6.08,5.1-13.76,7.05-22.83,5.82a10.32,10.32,0,0,1-5.68-3.13q-12.87-13-25.72-25.94c-16.41-16.55-33.37-33.66-50.11-50.43a28.19,28.19,0,0,0-8.33-6.19c-2.26-1-4.9.54-6.35,2.55a6.72,6.72,0,0,0,0,7.75,21.61,21.61,0,0,0,2.4,2.77q39.38,39.69,78.77,79.36a18.44,18.44,0,0,1,5.11,15.47A17.26,17.26,0,0,1,377,350.53c-3.46,2-7.72,3.15-13.41,3.78-3.7.41-7.68-1.77-10-4.11-28.41-28.86-57-58.2-81.67-83.44-2.18-2.23-3.89-3.15-6-3.09-3.84.06-5.23,1.93-6,3.55-1.8,3.76-.42,5.94.77,7.26,3.89,4.29,8,8.53,12.08,12.63l3.34,3.4q16,16.38,32,32.76,17.08,17.48,34.16,35a18.46,18.46,0,0,1,1.95,23.87,19.39,19.39,0,0,1-15.85,8.09,17.85,17.85,0,0,1-7.22-1.48c-3-1.31-4.3-4.59-4.81-6.42-3.76-13.52-10.4-22-20.89-26.69a42.85,42.85,0,0,0-4.85-1.67c-1.62-.48-3.3-1-5-1.65-2.12-.85-5.39-3.39-5.7-6.92-1.65-19-20.09-31.66-32.21-33.19-2.81-.35-6.37-2.79-7.21-6.13-4.65-18.47-15.16-27.35-34-28.77A12.33,12.33,0,0,1,205,277l-.39-.07-3.42-.58L200.5,273c-.21-1.11-.41-2.23-.6-3.33-.39-2.25-.76-4.38-1.29-6.4a35.46,35.46,0,0,0-19.72-23.54,31.84,31.84,0,0,0-27.56.48c-4,2-7.7,5.55-11.31,9l-.52.5c-8.15,7.72-16.33,15.71-24.24,23.44q-5,4.94-10.11,9.87c-.49.48-1,.85-1.35,1.16L101.58,286l-2.28-.51a5.66,5.66,0,0,1-3.37-1.57c-3-3-6.13-6.06-9.14-9C79.86,268.09,72.7,261.09,66,253.76a72.12,72.12,0,0,1-19-50.69A72.9,72.9,0,0,1,68.58,153.4L82.7,139.28q20.1-20.11,40.21-40.21a72.48,72.48,0,0,1,102.42-1.26c2.82,2.69,5.55,5.45,8.19,8.11q1.77,1.78,3.49,3.5l3.51,3.49-3.46,3.55-8.95,9.19c-6.56,6.74-12.76,13.11-19.11,19.56q-5,5-9.87,10.1c-9.07,9.3-18.44,18.91-28,28.06-12.52,12-4.12,24.09.08,28.75,18.06,20.06,48.84,24.79,73.18,11.26,8.59-4.78,15.56-11.52,22.94-18.65l2.06-2c6.89-6.63,13.85-13.43,20.57-20l9.93-9.69a12.5,12.5,0,0,1,1.27-1.06l.57-.44,3.58-2.84,3.15,3.3,2,2.07c1.34,1.42,2.67,2.82,4,4.2l45.82,46.56,38.2,38.82q4.8,4.88,9.57,9.76,5.73,5.85,11.47,11.68a16.73,16.73,0,0,1,5,12.62A16.56,16.56,0,0,1,418.4,309.68Zm14.22-52.89c-1.63,1.68-3.25,3.38-4.77,5l-5.46,5.7-3.61-3.51q-4-3.9-8-7.7c-5.85-5.63-11.38-11-16.9-16.53-12-12.13-24.17-24.52-35.92-36.51q-7.1-7.23-14.2-14.47l-8.73-8.89c-7.54-7.67-15.33-15.59-23-23.42-5.66-5.81-8.61-5.87-14.35-.29l-12.68,12.38c-11.9,11.64-24.2,23.67-36.61,35.21-17.64,16.41-41.29,18.51-60.24,5.36a52.17,52.17,0,0,1-6-5.1c-.8-.75-1.61-1.51-2.45-2.25l-3.88-3.43,3.56-3.76,2.55-2.71c1.65-1.76,3.2-3.43,4.81-5q13.44-13.46,26.9-26.89c18.25-18.22,37.12-37.07,55.59-55.69,9.25-9.32,22.16-20.54,40-24.6,26.52-6,49.69.45,68.88,19.27,19.88,19.5,39.05,38.82,55.19,55.16a71.44,71.44,0,0,1,20.9,51.12A74.9,74.9,0,0,1,432.62,256.79Z"/></svg>