<svg id="Layer_1" data-name="Layer 1" xmlns="http://www.w3.org/2000/svg" viewBox="0 0 500 500"><title>Almacenaje</title><path d="M407,223.1V406.55h3c7.11,0,14.22,0,21.32,0,4,0,6.78,2.71,6.81,6.31s-2.78,6.25-6.79,6.25H68.74c-4.06,0-6.84-2.51-6.88-6.15s2.78-6.37,6.71-6.4c7.11-.06,14.22,0,21.33,0H93V223.06c-1.06.6-1.9,1-2.7,1.53-6,3.7-11.93,7.37-17.85,11.13-2.31,1.46-4.63,2.12-7.19.79s-3.45-3.74-3.43-6.61c.06-9.29.17-18.59,0-27.88-.1-4.13,1.34-6.72,4.88-8.9q48.6-30,97.05-60.16,40.36-25.08,80.7-50.22c3.9-2.45,7.1-2.51,11-.06q88.46,55.11,177.06,109.94c4,2.5,5.9,5.28,5.7,10.11-.34,8.56-.13,17.13-.08,25.7,0,3.2,0,6.27-3.33,8s-5.73.25-8.35-1.42c-5.61-3.57-11.28-7-16.93-10.54C408.78,224.05,408,223.67,407,223.1Zm-31.6,183.3h18.9v-3.08q0-92.67.05-185.36a4.64,4.64,0,0,0-2.55-4.54q-69.88-43.29-139.68-86.72a3.32,3.32,0,0,0-4.11-.08q-69.9,43.51-139.91,86.88a4.43,4.43,0,0,0-2.41,4.34q.09,92.82,0,185.64v2.93h18.9v-3.62q0-74.91,0-149.82c0-1.18,0-2.37,0-3.55a6,6,0,0,1,5.79-5.81c1-.08,2,0,3,0H336.86q15.58,0,31.17,0c5.07,0,7.26,2.24,7.33,7.36,0,1.09,0,2.18,0,3.28V406.4Zm-112.82.07v-2.59c0-6.47.18-12.95-.06-19.41-.18-4.82.82-8.51,6.28-9.44,0-6-.05-11.88,0-17.71.05-4.8,2.48-7.16,7.29-7.18,5.82,0,11.64,0,17.54,0,.86-4,3.13-6.21,7.24-6.2,10,0,20-.06,30.08,0,4.55.05,6.81,2.45,6.85,7,.05,7,0,14,0,21.06,0,1,0,1.95,0,3.24,2,0,3.59,0,5.2,0,5.11,0,7.27,2.2,7.3,7.37,0,5.74,0,11.48,0,17.23v6.5h12.33V256.28H137.34v118.8h12.17c.06-1,.14-1.8.14-2.6,0-5.2-.06-10.39,0-15.59.08-4.4,2.46-6.68,6.84-6.75,2.65,0,5.29,0,7.93,0h10.23c0-1.76,0-3.12,0-4.48,0-5.92,2.15-8,8.13-8h40.47c5.74,0,7.89,2.16,7.91,8,0,8.84,0,17.68,0,26.52,0,1,.09,1.94.13,2.79.42.18.58.31.75.31,3.55,0,7.1,0,10.66.07,4.91,0,7.21,2.33,7.23,7.17,0,6.84,0,13.68,0,20.51v3.5ZM74.41,219.68c1.47-.88,2.55-1.5,3.61-2.16q83.18-51.68,166.31-103.43c4-2.5,7.24-2.53,11.27,0Q338.81,166,422.14,217.66c1,.64,2.08,1.25,3.42,2,0-4.8-.15-9.08.05-13.36a4.86,4.86,0,0,0-2.72-5Q337.54,148.53,252.3,95.51a3.7,3.7,0,0,0-4.59,0q-57.17,35.58-114.41,71-28.43,17.65-56.82,35.36a4.3,4.3,0,0,0-2,2.78C74.3,209.48,74.41,214.31,74.41,219.68Zm113,155.43h31.07V350.29H187.38Zm12.2,31.36V388.05H174.89v18.42ZM212.52,388v18.4h24.76V388Zm87.53,18.43V388.05H275.27v18.38Zm37.55,0V388.05H312.93v18.39Zm-200.32-.12H162V388.1H137.28Zm169.27-49.85v18.67h18.53V356.47Zm-144.19,6.35v12.29h12.09V362.82Zm119.1,12.26h12.23V362.92H281.46Z"/><path d="M249.71,224.71H213.35c-4.88,0-7.19-2.28-7.21-7.18q0-14.76,0-29.53c0-4.92,2.27-7.21,7.21-7.21q36.63-.06,73.26,0c4.93,0,7.19,2.3,7.21,7.21q.06,14.76,0,29.53c0,4.89-2.35,7.17-7.21,7.18Zm-30.9-12.77h62.3V193.57h-62.3Z"/><path d="M250,312.5H156.77c-4.33,0-7.06-2.43-7.08-6.21a6.19,6.19,0,0,1,5.63-6.29,22.58,22.58,0,0,1,2.73-.05Q250,300,342,300a15.33,15.33,0,0,1,3.78.3,6,6,0,0,1,4.49,6.63,6.1,6.1,0,0,1-5.73,5.59c-.9.07-1.82,0-2.73,0Z"/><path d="M250,287.39H157c-4.4,0-7-2.06-7.3-5.68a6.23,6.23,0,0,1,5.39-6.77,20,20,0,0,1,3-.09H341.86a18,18,0,0,1,3.53.22,6.09,6.09,0,0,1,4.86,6.64,6,6,0,0,1-5.93,5.65c-5.74.09-11.48,0-17.23,0Z"/></svg>