<svg id="Layer_1" data-name="Layer 1" xmlns="http://www.w3.org/2000/svg" viewBox="0 0 500 500"><title>Distribucion</title><path d="M332.67,192.73h27.89c5.37,0,10.73.05,16.09,0a6.78,6.78,0,0,1,5.75,2.72c16.74,20.93,33.55,41.81,50.17,62.83a11.27,11.27,0,0,1,1.84,6.43c.19,10.44,0,20.89.14,31.34a8.32,8.32,0,0,0,1.3,4.32,23.26,23.26,0,0,1-3.23,30.29,8.8,8.8,0,0,1-5.2,2c-5.45.25-10.91.18-16.36.05-2-.06-2.8.58-3.39,2.55-6.14,20.56-30.1,29.4-47.83,17.65A30.83,30.83,0,0,1,346.65,335c-.49-1.82-1.23-2.29-3-2.29q-55.47.06-111,0c-2,0-2.61.76-3.13,2.5a31.73,31.73,0,0,1-61.1-.39c-.48-1.7-1.24-2.15-2.87-2.09-3.05.11-6.11.15-9.15,0-1.92-.1-2.63.53-3.18,2.43a31.72,31.72,0,0,1-49.59,16.57,30.46,30.46,0,0,1-11.55-16.82c-.43-1.7-1.12-2.21-2.8-2.17-4.9.1-9.82-.27-14.69.12-4.59.36-7.53-1.7-10.05-5.08A23.73,23.73,0,0,1,64,300.47a9.13,9.13,0,0,0,1.4-4.84q.1-72.25.06-144.5a31.24,31.24,0,0,1,.18-3.87,5.71,5.71,0,0,1,4.76-5.1,17.06,17.06,0,0,1,3.85-.28H323.89c.65,0,1.3,0,1.94,0,4.43.2,6.82,2.6,6.83,7,0,13.49,0,27,0,40.49Zm-95.42,18.94c0-6,0-11.74,0-17.46,0-3.19.7-5.9,3.89-7.3,3.37-1.48,5.8.11,8.11,2.43q21,21.14,42.15,42.19c4.32,4.32,4.31,7.22,0,11.55l-38.24,38.24c-1.77,1.77-3.52,3.54-5.35,5.24-2.16,2-4.57,2.11-7.16.8s-3.38-3.49-3.37-6.17V262.88H78.34v19c1.24,0,2.33,0,3.41,0a33,33,0,0,1,3.59.14,6,6,0,0,1,5.51,6.45,6.11,6.11,0,0,1-6,6c-2.09.06-4.19,0-6.4,0a14.67,14.67,0,0,0-.2,2.2,13.43,13.43,0,0,1-3.5,10.89c-2.71,3-2.71,7-.87,10.68a3.69,3.69,0,0,0,2.7,1.67c4,.19,8,0,11.92.12,2.23.09,3.29-.45,4-2.85,4.35-15.29,20.66-25.38,36-22.12,12.7,2.7,21.15,10.43,25,23,.42,1.35.83,2,2.37,2,3.51-.1,7,.06,10.54-.11a3.07,3.07,0,0,0,2-1.57c2-3.72,3.3-7.87,5.72-11.25,11.92-16.62,38.14-16.61,50.12,0,2.74,3.81,4.57,8.28,7,12.69h88.64V154.71H78.38v57Zm12.74-3v7.86c0,5.77-2.25,8-8.07,8H78.37V250H241.83c6,0,8.15,2.2,8.16,8.22v7.51L278.53,237Zm134.35,9.59c-3.08-3.89-5.79-7.15-8.31-10.55a5.06,5.06,0,0,0-4.61-2.27c-11.83.12-23.66.06-35.49.06h-3.05V320c3.62,0,7-.09,10.45,0,1.92.07,2.77-.4,3.42-2.47,3.88-12.35,12.35-20.21,25-22.44s23.22,2.08,30.85,12.48c2.66,3.63,4.33,8,6.65,12.39-.41-.11-.23,0-.05,0l11.92,0c4.62,0,6.06-1.19,6-5.89,0-2.12-.39-4.8-1.7-6.22-3.27-3.53-4.11-7.46-3.7-12a5.53,5.53,0,0,0-.36-1.45c-1.9,0-3.75.07-5.58,0a9.32,9.32,0,0,1-3.21-.59,6.34,6.34,0,0,1-3.42-6.93,6,6,0,0,1,5.33-4.87c2.34-.24,4.7-.24,7.27-.36,0-3.81-.11-7.32,0-10.81.08-2-.78-2.44-2.58-2.6q-29.94-2.64-59.88-5.42c-5.73-.53-7.59-2.59-7.61-8.36q0-14.13,0-28.28c0-5.87,2.12-7.94,8.06-7.95Zm-7.13,127.13a19.23,19.23,0,0,0,19.1-19,19.07,19.07,0,1,0-38.14,0A19.15,19.15,0,0,0,377.21,345.38Zm-254.6,0a19.07,19.07,0,0,0,.27-38.13c-10.18-.19-19.06,8.57-19.23,19A19.23,19.23,0,0,0,122.61,345.38Zm76.54,0a19.23,19.23,0,0,0,19-19.09c-.1-10.37-8.91-19.14-19.15-19a19.07,19.07,0,0,0,.12,38.13ZM413.8,255.1c-6.53-8.18-12.53-15.77-18.66-23.27a4,4,0,0,0-2.72-.79c-6.38-.06-12.76,0-19.14,0h-8.66v19.51Z"/></svg>