<svg xmlns="http://www.w3.org/2000/svg" viewBox="0 0 500 500"><title>WhyUs-InnovationSVG</title><path d="M209.47,306.45a23.24,23.24,0,0,1,11.78-2.54c14.25.1,28.51,0,42.76,0,5.21,0,10.49-.46,15.09,2.43,2.07-4.78,3.53-9.63,6.11-13.78,3.93-6.29,8-12.71,13.12-18C326.06,246,327.42,201.32,300.44,172c-21.42-23.31-48-30.34-78.45-22-7.73,2.12-14.73,6-21.42,10.46-3,2-5.57,1.56-7.54-.87-2.36-2.93-1.94-6.28,1.16-8.46a84.28,84.28,0,0,1,46.89-15.68c38-1.07,71.38,20.58,84.27,56.22,11.91,32.94,5.89,63.15-17.82,89.4-6.82,7.54-13.48,15.24-16,25.39a76.69,76.69,0,0,0-2.35,16.21c-.35,12.35-.15,24.72-.09,37.08a20.52,20.52,0,0,1-3.56,12.39,5.15,5.15,0,0,0-.68,2.63c-.93,20.09-13.86,35.2-33.51,39.11-21.5,4.29-43.39-11.08-46.75-32.82a10.1,10.1,0,0,1-.23-1.53,23,23,0,0,0-3-11.13c-1.28-2.43-1.46-5.62-1.5-8.48-.19-13.31.09-26.62-.28-39.92a50.57,50.57,0,0,0-15.64-35.6C165.47,266.16,157,244,157.84,218.21a81.82,81.82,0,0,1,13.62-43.37c.33-.5.65-1,1-1.48,2.27-2.84,5.62-3.53,8.18-1.72s3.18,5.26,1.26,8.28a77.76,77.76,0,0,0-9.8,20.87c-7.62,27.56-1.53,51.92,17.67,73,8.53,9.35,16,19.24,19.25,31.74A9.14,9.14,0,0,0,209.47,306.45Zm7,73.63c1.06,13.05,14.53,23.79,28.94,23.25,15.31-.58,26-12.57,26.75-23.25ZM211,322l66.18,9.49c0-3.6.25-6.94-.08-10.23a6.45,6.45,0,0,0-6.48-5.52q-26.24-.06-52.46,0C214.49,315.75,212.07,317.91,211,322Zm.55,31.43a84.63,84.63,0,0,0,.07,9.18c.45,4,3.3,6.17,7.51,6.17q24.86,0,49.71,0a16.81,16.81,0,0,0,3.82-.41c2.48-.6,4.07-2.64,4.36-5.46ZM211,333.71v8.5l66.16,9.48V343.2Z"/><path d="M245,215.69c3.44-3.67,6.34-6.93,9.41-10q16-16,32.09-32a10.86,10.86,0,0,1,3.1-2.18,4.94,4.94,0,0,1,6,1.46c1.68,1.86,1.67,4.08.69,6.25a8.14,8.14,0,0,1-1.71,2.23q-22,22-44,44c-3.94,3.94-7.34,3.92-11.3,0q-41.1-41.16-82.18-82.34a10.31,10.31,0,0,1-2.75-3.9,5.09,5.09,0,0,1,2.15-6.09,5.55,5.55,0,0,1,6.7.35c2.7,2.38,5.2,5,7.75,7.53q36.39,36.41,72.76,72.83A17.46,17.46,0,0,1,245,215.69Z"/><path d="M361.56,97.11c-3.39,0-6.77,0-10.16,0a38.19,38.19,0,0,1-3.86-.1,5.74,5.74,0,0,1-5.32-5.84,5.66,5.66,0,0,1,5.54-5.66c4.2-.16,8.4-.07,12.61-.07,4.89,0,9.78,0,14.67,0,4.45,0,6.37,1.75,6.58,6.11q.58,12.33,1,24.68c.12,3.64-2.28,6.26-5.63,6.37s-5.94-2.38-6-6.23a94.21,94.21,0,0,0-.51-11.06c-.6.68-1.15,1.39-1.79,2q-25,25-50,50.06c-1.76,1.76-3.63,3.11-6.29,2.91a5.46,5.46,0,0,1-4.31-8.49,15.77,15.77,0,0,1,2.19-2.51q24.56-24.59,49.13-49.14c.79-.79,1.7-1.45,2.55-2.17Z"/><path d="M238.61,106.76c0-1.72-.07-3.43,0-5.14a5.78,5.78,0,0,1,5.66-5.53,5.64,5.64,0,0,1,5.86,5.31c.16,3.5.15,7,0,10.53a5.78,5.78,0,0,1-5.81,5.4,5.61,5.61,0,0,1-5.72-5.69C238.56,110,238.61,108.39,238.61,106.76Z"/><path d="M330.75,314.51c-4-.07-12.7-8.49-12.89-12.08a5.1,5.1,0,0,1,2.66-5.16,5.25,5.25,0,0,1,6.25.42c2.81,2.37,5.5,4.89,8.1,7.49a5.19,5.19,0,0,1,1,6.19A5.56,5.56,0,0,1,330.75,314.51Z"/><path d="M153,308.21a12.57,12.57,0,0,1,1.71-3.25c2.08-2.37,4.37-4.56,6.67-6.74a6.37,6.37,0,0,1,8.79.1c2.09,2.21,1.92,5.52-.52,8.05-2.07,2.16-4.15,4.32-6.36,6.33a6.31,6.31,0,0,1-7.14,1.27C154.05,313.07,153.07,311.35,153,308.21Z"/><path d="M146.93,181.14a5.75,5.75,0,0,1-7.93,5.25c-3-1.23-6-2.43-9-3.74-3.16-1.4-4.29-4.4-3-7.66a5.46,5.46,0,0,1,7.05-2.94c3.36,1.21,6.67,2.62,9.93,4.1A5,5,0,0,1,146.93,181.14Z"/><path d="M362.25,269.18c0,4.56-3.92,7.13-8.13,5.37-2.84-1.18-5.7-2.32-8.52-3.55a5.72,5.72,0,0,1-3.34-7.56c1.08-2.86,4.23-4.24,7.46-3.06s6.35,2.53,9.48,3.9A4.85,4.85,0,0,1,362.25,269.18Z"/><path d="M280.33,119.56c1.85-4.2,3.48-8.51,5.65-12.53,1.14-2.11,4.67-2.31,7-1.06a5.39,5.39,0,0,1,2.63,6.36,92.73,92.73,0,0,1-4.34,10.4,5.54,5.54,0,0,1-6.29,2.89C282.51,124.88,280.78,122.44,280.33,119.56Z"/><path d="M127.91,217.32c1.72,0,3.43-.07,5.14,0a5.82,5.82,0,0,1,5.57,5.65,5.67,5.67,0,0,1-5.31,5.85,107.87,107.87,0,0,1-10.79,0,5.52,5.52,0,0,1-5.12-6,5.64,5.64,0,0,1,5.37-5.51C124.48,217.24,126.2,217.32,127.91,217.32Z"/><path d="M360.86,229.41c-1.79,0-3.6.13-5.39,0a5.77,5.77,0,0,1,.35-11.51c3.33-.1,6.68-.1,10,0a5.77,5.77,0,0,1,.16,11.54c-1.7.12-3.42,0-5.14,0Z"/><path d="M341.42,179.94a6,6,0,0,1,3.82-5.35c2.77-1.16,5.52-2.36,8.32-3.42a5.74,5.74,0,1,1,4.2,10.65c-2.91,1.26-5.85,2.46-8.79,3.64A5.67,5.67,0,0,1,341.42,179.94Z"/><path d="M207.43,120c-.5,2.86-2.3,5.47-4.63,6.19a5.3,5.3,0,0,1-6.15-2.66,79.33,79.33,0,0,1-4.47-10.89c-.78-2.37.88-5.24,3-6.26s5.41-.64,6.56,1.4C203.93,111.64,205.56,115.87,207.43,120Z"/><path d="M141.86,261.08a5.58,5.58,0,0,1,2.74,10.47A105.59,105.59,0,0,1,134,276.07c-2.21.81-5-.75-6.23-3.05-1.08-2-.86-5.31,1.24-6.54,4-2.34,8.38-4.06,12.6-6Z"/></svg>