<svg xmlns="http://www.w3.org/2000/svg" viewBox="0 0 500 500"><defs><style>.a{stroke:#000;stroke-miterlimit:10;stroke-width:3px;}</style></defs><title>WhyUs-ExperienceSVG</title><path class="a" d="M233,240.7c-41.69-24.44-65.47-60.33-71.44-108.49H129.75V95.62h240c.39,11.95.1,24,.19,36.4H338.44c-5.78,48.15-29.78,84.09-71.42,108.58,0,5.53.06,11.07,0,16.59,0,2.15,1.58,2.65,2.9,3.56,5.79,4,11.8,7.71,17.31,12,23.15,18.18,38.27,41.8,46.26,70,1.82,6.45,2.68,13.18,4,19.78.31,1.6.55,3.22.89,5.27h31.94v36.56H130.79c-.89-3.09-1.18-29.6-.33-36.45h30.81c.8-4.95,1.37-9.53,2.29-14,6.71-32.93,22.83-60.22,49.24-81.17,5.49-4.36,11.47-8.14,17.37-12,2-1.28,3-2.52,2.87-5C232.85,250.73,233,245.65,233,240.7ZM166.9,132.44c0,.84-.05,1.43,0,2a129,129,0,0,0,17.81,53.2,130.6,130.6,0,0,0,49.46,47.85c2.91,1.63,4,3.41,3.8,6.67a106.16,106.16,0,0,0,0,14.38c.32,4-1.22,6-4.65,8-33,19.34-54.53,47.47-63.87,84.67-1.48,5.89-2.23,12-3.38,18.32H333c0-.54,0-1,0-1.37a132.36,132.36,0,0,0-67.55-102.33c-2.66-1.47-3.56-3.09-3.43-6A130.83,130.83,0,0,0,262,243c-.28-4,1.12-6.05,4.6-8.07,28.1-16.27,48.23-39.43,59.42-70.08a120.14,120.14,0,0,0,7.23-32.44Zm-32.23-5.24H364.81V100.57H134.67ZM135,399.85H365.32V373.11H135Z"/></svg>