<svg xmlns="http://www.w3.org/2000/svg" viewBox="0 0 500 500"><defs><style>.a{stroke:#000;stroke-miterlimit:10;stroke-width:2px;}</style></defs><title>WhyUs-TeamSVG</title><path class="a" d="M420.15,279.15c-1.89-19-10.49-33.83-27.09-43.9-3.46-2.1-7.77-2.68-10.61-5.56.47-2.43,2.44-3,3.64-4.25a28.82,28.82,0,1,0-41.12-.21c1.36,1.4,4.06,2.13,3.37,5.28-10,3.26-18.21,9.37-25.06,17.35s-10,17.72-12.45,28.83a75.43,75.43,0,0,0-18.48-12.95,84.15,84.15,0,0,0-21.16-7.64c40.32-21.39,38.79-63.73,21.58-84.9-21.38-26.31-58-25.87-78.75-7.29-11.88,10.63-18.54,23.9-18.71,39.84-.24,23.64,11.63,40.33,33.21,52.27-15.72,3.69-27.87,11-40,20-4.1-23.16-16.78-38.19-37.47-45.76,0-3,2.17-3.46,3.37-4.65A28.87,28.87,0,0,0,122,178.94,28.64,28.64,0,0,0,113.34,225c1.41,1.48,3.86,2.38,3.58,5.35-11.15,4.17-20.76,10.64-27.51,20.73s-10.81,21-9.36,33.47c5.39,0,5.67-.31,5.94-5.34,1.75-31.63,34.29-53.29,64-42.35,18.16,6.7,28.73,19.81,31.84,39,.67,4.1.14,7.09-2.71,10.28A91,91,0,0,0,164,310.36c-4.72,10.72-6.59,22.05-7.45,33.59-.32,4.31,1.06,5.32,5.66,4.81a43.25,43.25,0,0,0,1.45-9.23c.4-13,4.53-25.06,11-36.15,19.75-34,59.27-50.9,97.89-40.39,23.07,6.28,40.39,20,52.45,40.37a80.46,80.46,0,0,1,11.48,40.29c.05,3.23.36,6.14,4.57,5.68,2.4-1.67,2.06-4,2-6.13-.9-21.19-8-40.05-21.8-56.16a13.2,13.2,0,0,1-3.27-11.47,48.6,48.6,0,0,1,14.49-28.08c24.28-23.86,66.42-14.39,78.21,17.59,2.29,6.21,3.07,12.62,3.79,19C419.38,285.1,420.64,284.1,420.15,279.15ZM134,227.37c-12.25,0-23-10.31-22.5-22.29.61-13.9,11.13-22.44,22.58-22.25,12.59.21,22.46,9.85,22.33,22.32A22.09,22.09,0,0,1,134,227.37ZM249.24,252.9c-24.73,1.15-47.76-21.56-47.6-48.41.14-22.43,19.36-47.68,48.21-47.53,25.8.13,48.14,20,48.18,48.13C298.08,233.51,274.63,254.09,249.24,252.9ZM365,227.38c-10.36.81-21.84-9.95-21.92-22.27-.07-10.84,9.66-22.9,23.09-22.3,12.13.53,21.88,10,21.88,22.32C388,219.52,375,228.55,365,227.38Z"/></svg>