<svg xmlns="http://www.w3.org/2000/svg" viewBox="0 0 500 500"><title>WhyUs-AdaptSVG</title><path d="M194.6,296.15l167-167c-1.67-.1-3.16-.26-4.65-.26q-24,0-48,0c-1.32,0-2.65.07-4-.06-3.83-.37-6.87-3.32-6.4-6.48.56-3.72,2.92-5.52,6.75-5.51,13.65,0,27.3,0,40.95,0,9.84,0,19.67,0,29.51,0,5.43,0,7.45,2,7.46,7.46q.09,35,0,70c0,4.56-2.31,7.17-5.95,7.2s-6-2.53-6-7.14c-.07-17.77,0-35.53,0-53.29v-1.84L204.54,306.11c17.91,26.2,7.14,53.85-9.15,66.41-20.09,15.5-47.32,13.94-64.58-3.47a48.65,48.65,0,0,1-4.25-63.59C140.36,287.42,168.81,277.73,194.6,296.15Zm-29.3,74.9c20.07-.17,36.37-16.36,36.22-36a36.53,36.53,0,0,0-36.61-36.61c-19.91.11-36.44,16.61-36.16,36.08C129.05,355.33,145,371.21,165.3,371.05Z"/><path d="M183.35,191.72c-7.74,7.77-15.18,15.26-22.64,22.73a40.82,40.82,0,0,1-3.47,3.37c-2.82,2.28-6.72,2.2-8.74-.28-2.29-2.8-2.1-5.78.37-8.33,5.63-5.79,11.36-11.47,17.1-17.15,2.81-2.79,5.72-5.47,8.93-8.53-1.39-1.46-2.43-2.61-3.52-3.7-7.26-7.27-14.56-14.51-21.79-21.81-3.32-3.34-3.54-6.48-.85-9.2s6-2.59,9.27.66c8.32,8.26,16.53,16.64,25.34,25.55,6.57-6.69,12.79-13,19-19.37,2.26-2.3,4.49-4.66,6.89-6.81,2.71-2.43,5.73-3.07,8.64-.31,2.63,2.49,2.59,6-.32,9-7.92,8.07-16,16-24,24-.51.51-.94,1.1-1.6,1.88l22.7,22.72c.94.94,1.9,1.85,2.8,2.81,2.59,2.74,2.95,5.74.54,8.68-2.13,2.59-6.18,2.52-9-.2-5.29-5.09-10.43-10.32-15.62-15.51C190.22,198.68,187,195.44,183.35,191.72Z"/><path d="M325.33,316.76c7.81,7.82,15.45,15.49,23.09,23.16a29.78,29.78,0,0,1,3.34,3.5c1.83,2.57,1.84,5.32-.37,7.63s-5.28,2.8-7.93.67-4.87-4.66-7.27-7l-19.43-19.24-22.25,22c-1.25,1.24-2.43,2.56-3.76,3.7-2.84,2.42-5.84,2.73-8.69.09-2.43-2.24-2.36-5.88.27-8.67,3.53-3.73,7.23-7.3,10.87-10.91,4.89-4.85,9.81-9.67,15.34-15.13l-21.81-21.36c-1.26-1.23-2.51-2.47-3.73-3.74-3.28-3.41-3.6-6.48-1-9.26s6.1-2.63,9.6.82c5,4.94,10,10,14.9,15,3.28,3.34,6.51,6.74,9.81,10.16l22.5-22.23c1-1,2.05-2.1,3.11-3.11,3.36-3.2,6.51-3.47,9.29-.83s2.54,6-.66,9.23c-7.19,7.34-14.45,14.6-21.67,21.9C327.76,314.18,326.68,315.35,325.33,316.76Z"/></svg>