<svg xmlns="http://www.w3.org/2000/svg" viewBox="0 0 500 500"><title>WhyUs-MissionSVG</title><path d="M244.62,405.21c-44.36-1-80.64-16.35-109.81-47.37-21.87-23.27-35.07-51.07-38.5-82.78-5.06-46.75,8.88-87.45,41.73-121.35,18.72-19.32,41.43-32.05,67.28-39.05A143.14,143.14,0,0,1,235,110.18,148.91,148.91,0,0,1,340.51,146.4c3.14,2.69,2.77,2.83,6.38-.26,4.25-3.64,6-7.22,4.49-13.22-3-12-2.54-9.36,5.39-17.49,5.31-5.44,10.74-10.76,16.11-16.13.73-.73,1.42-1.5,2.19-2.17,4.35-3.83,7.5-2.95,8.79,2.59.75,3.18,1.18,6.44,1.73,9.67.63,3.76.71,3.9,4.5,4.57,3.23.57,6.5.9,9.71,1.56,5.25,1.08,6.46,4.49,2.78,8.26-7.74,7.94-15.7,15.67-23.46,23.59a7.17,7.17,0,0,1-7.26,2.06c-3.21-.68-6.44-1.23-9.66-1.8-2.08-.37-4-.41-5.61,1.46-2,2.32-4.17,4.49-6.26,6.73,1.73,2.22,3.41,4.5,5.2,6.67,17.61,21.38,29,45.57,32.77,73.12,6.14,44.36-5.39,83.75-34.17,117.87-23.57,27.95-54,44.19-89.95,50C257.12,404.62,249.9,404.76,244.62,405.21Zm84-228.28c46.88,52.52,38.22,126.42-7.54,167.53a117.5,117.5,0,0,1-159-2c-45.3-42.6-49.29-113.76-8.12-161.91,38.31-44.78,113.16-58.73,169-9.6,4.18-4.15,8.42-8.3,12.57-12.52,2.36-2.39,2.33-2.49-.24-4.73-34-29.74-73.58-40.52-117.76-32.92-33.33,5.74-61,22.28-82.5,48.55-25.95,31.76-35.86,68.26-30,108.7a131.83,131.83,0,0,0,36.95,74.89c35.06,35.76,77.78,49.15,126.83,40.56,31.31-5.48,57.72-20.95,78.41-45.22,31.52-37,41-79.45,29.69-126.46-5.21-21.72-16.2-40.62-30.82-57.45-1.52-1.75-2.63-2.11-4.41-.27C337.46,168.33,333.15,172.43,328.58,176.93Zm-12.19-.15C270.84,135.24,199.21,139,159,187.35A109.17,109.17,0,0,0,172,340c44.23,37.94,112.19,34.37,152.2-11.05,39.73-45.09,32.92-109.71-2.06-145.38-4.17,4.17-8.27,8.43-12.55,12.49-2,1.85-1.94,3.36-.11,5.13a17.88,17.88,0,0,1,1.62,1.85c16.64,21.29,22.5,45.22,17.14,71.7-4,19.56-13.85,35.78-29,48.73-16.61,14.17-36.06,21.28-57.73,20.85-25.16-.5-46.73-10.07-63.58-29.09-18.86-21.3-26.18-46.23-20.8-74.17,5.84-30.32,23.46-51.92,51.72-64.38a81.81,81.81,0,0,1,52.3-4.92A88.94,88.94,0,0,1,298.3,190c3,2.43,3.09,2.48,6-.44C308.28,185.51,312.15,181.28,316.39,176.78Zm-30.7,42.68c1.44,1.94,2.45,3.24,3.39,4.58,10.61,15.09,13.14,31.64,8.14,49.21-7.4,25.94-31.79,41.54-56.46,40.9-33.61-.86-59.62-31.63-55.06-64.89,5.51-40.2,52.31-64.64,89.26-39.1,1,.7,1.89,1.75,3,2.11s2.57.35,3.21-.24c4.7-4.25,9.22-8.7,14.53-13.79-1.56-1.12-2.76-1.9-3.87-2.78-19.38-15.33-41.44-20.71-65.38-15.56-42,9-69.27,48.89-61,92.12a77.75,77.75,0,0,0,85.36,63.25c18.5-2.1,34.61-9.36,47.28-22.67,22.8-24,28.85-52.13,18-83.54A67.61,67.61,0,0,0,303,206.91c-1.55-1.79-2.7-2.07-4.44-.28C294.43,210.9,290.15,215,285.69,219.46Zm-5.91,7c-4.45,4.6-8.5,9-12.75,13.12-1.6,1.58-1.75,2.88-.65,4.74a25.13,25.13,0,0,1,3,18.4,27.15,27.15,0,0,1-28.15,21.71,27.79,27.79,0,0,1-25.49-24.23c-1.49-12.7,7.24-25.31,20-29,7.11-2,13.78-1,20.19,2.46,1.22.66,2.41,1.81,3.86.43l14-13.44c-17.53-15.89-47.6-16.11-66.21,3.27-18.15,18.88-17.91,49.47.26,67.94a49,49,0,0,0,67.88,1.86C294.89,276.33,296.77,245.76,279.78,226.47Zm-21.92,20.94c-3.22,3.21-6.39,6.38-9.58,9.54a32.15,32.15,0,0,1-3.09,3c-1.95,1.49-4,1.39-5.57-.06a3.9,3.9,0,0,1-.38-5.52,43.55,43.55,0,0,1,3.8-4c2.83-2.85,5.67-5.68,8.58-8.6-8.36-5.26-17.43-3.78-23.47,3.42a18.74,18.74,0,0,0,.85,24.69,18.32,18.32,0,0,0,24.09,2.22C260.58,266.55,264,255.8,257.86,247.41Zm133.63-124c-5-2.26-6.38-2.59-8.17-.88-5.56,5.33-10.95,10.84-17.08,17,3.82.42,6.29,3.07,9.26,0C380.68,134,386.09,128.79,391.49,123.39Zm-14.95-15.18c-5.62,5.62-10.91,11-16.25,16.23-1.28,1.27-2,2.52-1.15,4.32.54,1.21.85,2.51,1.49,4.48,5.63-5.63,10.78-10.81,16-15.94a3.9,3.9,0,0,0,1-4.43C377.2,111.54,377,110.13,376.54,108.21Z"/></svg>